<svg width="29" height="29" viewBox="0 0 29 29" fill="none" xmlns="http://www.w3.org/2000/svg">
<path d="M28.8806 14.4343C28.5933 14.2199 28.3039 14.0116 28.0206 13.7932C26.8125 12.8588 25.6064 11.9204 24.3984 10.984C23.5404 10.3165 22.6803 9.65318 21.8284 8.97768C21.6969 8.87656 21.6119 8.88263 21.4804 8.95948C20.4524 9.55408 19.4224 10.5694 18.3903 11.1579C18.3701 11.17 18.018 11.4451 17.591 11.7727C17.4858 11.6514 17.3705 11.5401 17.2531 11.4289C17.678 10.899 18.0585 10.4318 18.0726 10.4076C18.6736 9.37813 19.4851 8.56106 20.0902 7.5296C20.159 7.40826 20.163 7.3314 20.074 7.21612C19.0743 5.92175 18.0828 4.62536 17.0892 3.32896C16.304 2.3056 15.5229 1.28628 14.7378 0.262919C14.7034 0.216403 14.6771 0.165841 14.6467 0.113258C14.6103 0.0768533 14.5718 0.0384267 14.5354 0C13.4063 1.45415 12.2771 2.90829 11.1479 4.36244C10.4174 5.30693 9.68286 6.24737 8.94627 7.18781C8.85926 7.295 8.85723 7.36781 8.92199 7.48309C9.57763 8.61566 10.3648 9.62082 10.9091 10.5714C10.9253 10.5936 11.2855 11.0062 11.6923 11.4774C11.5992 11.5604 11.5102 11.6493 11.4272 11.7444C10.893 11.3136 10.4134 10.9273 10.3891 10.9132C9.35908 10.3145 8.54155 9.50352 7.51357 8.90083C7.39013 8.82802 7.30919 8.83611 7.19789 8.92308C5.90887 9.92015 4.61782 10.9071 3.32475 11.8941C2.22594 12.7334 1.13118 13.5747 0.034401 14.414C0.0263066 14.4221 0.0202359 14.4363 0 14.4666C0.279255 14.6851 0.560533 14.9055 0.839788 15.1239C2.12274 16.117 3.40165 17.112 4.68258 18.105C5.52641 18.7603 6.37025 19.4136 7.20801 20.0729C7.31728 20.1558 7.38811 20.1073 7.47512 20.0567C8.50918 19.4621 9.54525 18.6572 10.5834 18.0626C10.6056 18.0484 11.0043 17.6985 11.4697 17.3001C11.5466 17.383 11.6275 17.4619 11.7105 17.5387C11.2026 18.1313 10.721 18.6996 10.6683 18.7886C10.1442 19.6866 9.4117 20.5846 8.88152 21.4785C8.81474 21.5958 8.82081 21.6706 8.90378 21.7778C9.96616 23.1551 11.0245 24.5385 12.0828 25.9218L14.4464 29C14.4848 28.9636 14.5212 28.9252 14.5597 28.8847C14.7742 28.5975 14.9846 28.3083 15.2032 28.0252C16.1381 26.8178 17.077 25.6144 18.014 24.407C18.6817 23.5495 19.3455 22.6899 20.0214 21.8365C20.1225 21.705 20.1165 21.6201 20.0396 21.4886C19.4446 20.4612 18.6433 19.4318 18.0524 18.4003C18.0382 18.3781 17.6963 17.9877 17.3017 17.5307C17.3705 17.4639 17.4393 17.3951 17.506 17.3244C17.9613 17.7289 18.3519 18.0727 18.3721 18.0828C19.4062 18.6835 20.4362 19.4945 21.4662 20.0992C21.5836 20.1679 21.6645 20.172 21.7799 20.083C23.0749 19.0839 24.3721 18.0929 25.6692 17.0999C26.6931 16.3152 27.713 15.5345 28.7349 14.7498C28.7815 14.7154 28.8361 14.6891 28.8847 14.6588C28.9251 14.6224 28.9636 14.5839 29 14.5475C28.9636 14.5091 28.9251 14.4727 28.8847 14.4322M14.4929 16.6145C13.3253 16.6104 12.3783 15.6619 12.3823 14.4949C12.3864 13.328 13.3375 12.3815 14.5051 12.3855C15.6727 12.3896 16.6197 13.3401 16.6157 14.5071C16.6116 15.674 15.6605 16.6165 14.4929 16.6125" fill="url(#paint0_radial_906_12175)"/>
<defs>
<radialGradient id="paint0_radial_906_12175" cx="0" cy="0" r="1" gradientUnits="userSpaceOnUse" gradientTransform="translate(14.4979 14.5) rotate(-75.4194) scale(17.8363 10.332)">
<stop offset="0.1" stop-color="white" stop-opacity="0"/>
<stop offset="0.19" stop-color="white" stop-opacity="0.06"/>
<stop offset="0.35" stop-color="white" stop-opacity="0.21"/>
<stop offset="0.57" stop-color="white" stop-opacity="0.46"/>
<stop offset="0.85" stop-color="white" stop-opacity="0.64"/>
<stop offset="1" stop-color="white" stop-opacity="0.79"/>
</radialGradient>
</defs>
</svg>
