<svg width="119" height="27" viewBox="0 0 119 27" fill="none" xmlns="http://www.w3.org/2000/svg">
<g clip-path="url(#clip0_370_4676)">
<path d="M55.9522 16.5368C55.9522 19.9256 54.1745 21.6452 50.669 21.6452C47.1636 21.6452 45.2061 19.9759 45.2061 16.5368V2.99658H42.1401V16.8083C42.1401 21.6603 45.1362 24.3351 50.5791 24.3351C56.0221 24.3351 59.0182 21.5949 59.0182 16.8083V2.99658H55.9522V16.5368Z" fill="white"/>
<path d="M65.2601 3.00146H62.4688V24.0031H65.2601V3.00146Z" fill="white"/>
<path d="M74.1984 21.4037C73.9887 21.4741 73.4045 21.6149 72.9001 21.6149C71.9114 21.6149 71.5069 21.2428 71.5069 20.3327V10.3071H74.523V7.94895H71.5069V3.00146H68.7156V20.8808C68.7156 22.9825 69.9639 24.0936 72.3259 24.0936C72.975 24.0936 73.6442 24.0233 74.3233 23.8774L74.4631 23.8473V21.4037H74.1984Z" fill="white"/>
<path d="M85.8781 8.00452L85.7682 7.95927C85.4537 7.83357 85.194 7.76318 84.7096 7.76318C82.9619 7.76318 81.2991 8.6833 80.1805 10.242V7.94419H77.3892V23.9984H80.1805V15.109C80.1805 12.0973 82.3677 10.5185 84.5299 10.5185C85.0042 10.5185 85.224 10.5487 85.5585 10.6593H85.8781V8.00452Z" fill="white"/>
<path d="M99.875 15.9886C99.875 20.4283 97.3782 22.0071 95.0462 22.0071C92.0951 22.0071 90.1826 19.6439 90.1826 15.9886C90.1826 12.3333 92.0901 9.94003 95.0462 9.94003C98.0024 9.94003 99.875 12.3132 99.875 15.9886ZM95.0462 7.55176C90.5771 7.55176 87.3313 11.1015 87.3313 15.9886C87.3313 20.8758 90.5771 24.4255 95.0462 24.4255C99.5154 24.4255 102.731 20.9562 102.731 15.9886C102.731 11.021 99.5704 7.55176 95.0462 7.55176Z" fill="white"/>
<path d="M113.577 7.58232C111.56 7.58232 109.972 8.29629 108.743 9.75942V7.94433H105.952V23.9985H108.743V14.1639C108.743 11.7103 110.431 9.99573 112.848 9.99573C114.98 9.99573 116.204 11.0918 116.204 13.0075V23.9935H118.995V12.7913C118.995 9.5231 116.968 7.57227 113.572 7.57227" fill="white"/>
<path d="M6.97591 13.5001C6.97591 16.9945 5.41295 19.8252 3.49045 19.8252C1.56796 19.8252 0 16.9945 0 13.5001C0 10.0057 1.56296 7.17494 3.48546 7.17494C5.40796 7.17494 6.97092 10.0057 6.97092 13.5001M10.1767 13.5001C10.1767 14.6314 10.017 15.7576 9.69238 16.7783C9.37779 17.7688 8.92338 18.714 8.34413 19.5889C7.99459 20.1168 7.24057 21.2934 7.87474 21.7459C7.9846 21.8213 8.12941 21.8766 8.32915 21.9068C9.55755 22.0828 10.6861 21.3085 11.515 20.5191C12.4188 19.6593 13.1479 18.6336 13.6472 17.5023C14.7608 14.9833 14.7608 12.0219 13.6472 9.5079C13.1479 8.38164 12.4188 7.35091 11.515 6.49114C10.6861 5.70175 9.55256 4.92745 8.32915 5.10343C8.12941 5.1336 7.9846 5.1889 7.87474 5.26432C7.23558 5.71684 7.99459 6.89337 8.34413 7.42131C8.92338 8.29114 9.37779 9.24142 9.69238 10.2319C10.017 11.2526 10.1767 12.3788 10.1767 13.5101M17.7019 13.5101C17.7019 14.9582 17.4922 16.4062 17.0778 17.7085C16.6733 18.9755 16.089 20.1923 15.35 21.3085C14.9006 21.9822 13.9319 23.4906 14.7508 24.0688C14.8906 24.1643 15.0804 24.2397 15.33 24.2749C16.903 24.5012 18.3511 23.5057 19.4147 22.4951C20.5732 21.3939 21.507 20.0766 22.1462 18.6336C23.5543 15.4559 23.5593 11.5794 22.1462 8.38667C21.507 6.94365 20.5732 5.62633 19.4147 4.52522C18.3511 3.5146 16.903 2.51907 15.33 2.74533C15.0754 2.78052 14.8856 2.85091 14.7508 2.95147C13.9319 3.52969 14.9006 5.03806 15.35 5.71181C16.089 6.82801 16.6733 8.04477 17.0778 9.31181C17.4922 10.614 17.7019 12.0621 17.7019 13.5101ZM26.4555 13.5101C26.4555 15.3202 26.1959 17.1302 25.6766 18.7593C25.1722 20.3431 24.4432 21.8666 23.5194 23.2593C22.9601 24.104 21.7517 25.9895 22.7703 26.7135C22.9451 26.8342 23.1798 26.9247 23.4944 26.9699C25.4618 27.2515 27.2695 26.0096 28.6027 24.7425C30.0509 23.3649 31.2193 21.7207 32.0183 19.9107C33.806 15.8733 33.806 11.1319 32.0183 7.09952C31.2193 5.29449 30.0509 3.64533 28.6027 2.26767C27.2745 1.00064 25.4618 -0.241264 23.4994 0.0402999C23.1848 0.0855513 22.9451 0.176054 22.7753 0.296724C21.7517 1.02075 22.9651 2.90622 23.5244 3.75091C24.4482 5.14868 25.1772 6.66712 25.6815 8.25091C26.2009 9.87996 26.4605 11.69 26.4605 13.5001" fill="url(#paint0_linear_370_4676)"/>
</g>
<defs>
<linearGradient id="paint0_linear_370_4676" x1="-1.24272e-07" y1="13.5051" x2="33.3591" y2="13.5051" gradientUnits="userSpaceOnUse">
<stop stop-color="#1FFFA3"/>
<stop offset="1" stop-color="#8C47F5"/>
</linearGradient>
<clipPath id="clip0_370_4676">
<rect width="119" height="27" fill="white"/>
</clipPath>
</defs>
</svg>
